<mxfile host="app.diagrams.net" modified="2022-06-14T10:59:41.403Z" agent="5.0 (Windows NT 10.0; Win64; x64) AppleWebKit/537.36 (KHTML, like Gecko) Chrome/98.0.4758.102 Safari/537.36" etag="eWPjYi-BRPvLNcTbnGn8" version="20.0.1" type="github">
  <diagram name="Page-1" id="099fd60b-425b-db50-ffb0-6b813814b670">
    <mxGraphModel dx="1422" dy="794" grid="1" gridSize="10" guides="1" tooltips="1" connect="1" arrows="1" fold="1" page="1" pageScale="1" pageWidth="850" pageHeight="1100" background="none" math="0" shadow="0">
      <root>
        <mxCell id="0" />
        <mxCell id="1" parent="0" />
        <mxCell id="YWGqaz6Da9Mq3yNSdDmz-1" value="" style="rounded=0;whiteSpace=wrap;html=1;fontSize=11;" vertex="1" parent="1">
          <mxGeometry x="462.5" y="60" width="220" height="100" as="geometry" />
        </mxCell>
        <mxCell id="YWGqaz6Da9Mq3yNSdDmz-2" value="" style="rounded=0;whiteSpace=wrap;html=1;fontSize=11;" vertex="1" parent="1">
          <mxGeometry x="70" y="30" width="660" height="500" as="geometry" />
        </mxCell>
        <mxCell id="YWGqaz6Da9Mq3yNSdDmz-3" value="" style="rounded=0;whiteSpace=wrap;html=1;fontSize=8;" vertex="1" parent="1">
          <mxGeometry x="440" y="200" width="270" height="290" as="geometry" />
        </mxCell>
        <mxCell id="YWGqaz6Da9Mq3yNSdDmz-4" style="edgeStyle=orthogonalEdgeStyle;rounded=0;orthogonalLoop=1;jettySize=auto;html=1;exitX=1;exitY=0.5;exitDx=0;exitDy=0;entryX=0;entryY=0.5;entryDx=0;entryDy=0;fontSize=11;" edge="1" parent="1" source="YWGqaz6Da9Mq3yNSdDmz-5" target="YWGqaz6Da9Mq3yNSdDmz-1">
          <mxGeometry relative="1" as="geometry" />
        </mxCell>
        <mxCell id="YWGqaz6Da9Mq3yNSdDmz-5" value="configurable&lt;br&gt;IO &amp;amp; Decoder" style="rounded=0;whiteSpace=wrap;html=1;" vertex="1" parent="1">
          <mxGeometry x="100" y="80" width="120" height="60" as="geometry" />
        </mxCell>
        <mxCell id="YWGqaz6Da9Mq3yNSdDmz-6" value="Weight Buffer" style="rounded=0;whiteSpace=wrap;html=1;" vertex="1" parent="1">
          <mxGeometry x="100" y="160" width="120" height="60" as="geometry" />
        </mxCell>
        <mxCell id="YWGqaz6Da9Mq3yNSdDmz-7" value="" style="rounded=0;whiteSpace=wrap;html=1;" vertex="1" parent="1">
          <mxGeometry x="100" y="240" width="200" height="240" as="geometry" />
        </mxCell>
        <mxCell id="YWGqaz6Da9Mq3yNSdDmz-8" value="&lt;b&gt;finite-state controller&lt;/b&gt;" style="rounded=0;whiteSpace=wrap;html=1;" vertex="1" parent="1">
          <mxGeometry x="557.5" y="60" width="130" height="100" as="geometry" />
        </mxCell>
        <mxCell id="YWGqaz6Da9Mq3yNSdDmz-9" value="data buffer_1" style="text;html=1;strokeColor=none;fillColor=none;align=center;verticalAlign=middle;whiteSpace=wrap;rounded=0;" vertex="1" parent="1">
          <mxGeometry x="100" y="240" width="80" height="30" as="geometry" />
        </mxCell>
        <mxCell id="YWGqaz6Da9Mq3yNSdDmz-10" value="data buffer_2" style="text;html=1;strokeColor=none;fillColor=none;align=center;verticalAlign=middle;whiteSpace=wrap;rounded=0;" vertex="1" parent="1">
          <mxGeometry x="100" y="450" width="80" height="30" as="geometry" />
        </mxCell>
        <mxCell id="YWGqaz6Da9Mq3yNSdDmz-11" value="" style="whiteSpace=wrap;html=1;aspect=fixed;" vertex="1" parent="1">
          <mxGeometry x="120" y="270" width="80" height="80" as="geometry" />
        </mxCell>
        <mxCell id="YWGqaz6Da9Mq3yNSdDmz-12" value="bank0" style="rounded=0;whiteSpace=wrap;html=1;" vertex="1" parent="1">
          <mxGeometry x="120" y="270" width="80" height="20" as="geometry" />
        </mxCell>
        <mxCell id="YWGqaz6Da9Mq3yNSdDmz-13" value="bank47" style="rounded=0;whiteSpace=wrap;html=1;" vertex="1" parent="1">
          <mxGeometry x="120" y="330" width="80" height="20" as="geometry" />
        </mxCell>
        <mxCell id="YWGqaz6Da9Mq3yNSdDmz-14" value="" style="endArrow=none;dashed=1;html=1;rounded=0;" edge="1" parent="1">
          <mxGeometry width="50" height="50" relative="1" as="geometry">
            <mxPoint x="159.57999999999993" y="325" as="sourcePoint" />
            <mxPoint x="159.57999999999993" y="295" as="targetPoint" />
          </mxGeometry>
        </mxCell>
        <mxCell id="YWGqaz6Da9Mq3yNSdDmz-15" value="" style="whiteSpace=wrap;html=1;aspect=fixed;" vertex="1" parent="1">
          <mxGeometry x="120" y="370" width="80" height="80" as="geometry" />
        </mxCell>
        <mxCell id="YWGqaz6Da9Mq3yNSdDmz-16" value="bank0" style="rounded=0;whiteSpace=wrap;html=1;" vertex="1" parent="1">
          <mxGeometry x="120" y="370" width="80" height="20" as="geometry" />
        </mxCell>
        <mxCell id="YWGqaz6Da9Mq3yNSdDmz-17" value="bank47" style="rounded=0;whiteSpace=wrap;html=1;" vertex="1" parent="1">
          <mxGeometry x="120" y="430" width="80" height="20" as="geometry" />
        </mxCell>
        <mxCell id="YWGqaz6Da9Mq3yNSdDmz-18" value="" style="endArrow=none;dashed=1;html=1;rounded=0;" edge="1" parent="1">
          <mxGeometry width="50" height="50" relative="1" as="geometry">
            <mxPoint x="159.57999999999993" y="425" as="sourcePoint" />
            <mxPoint x="159.57999999999993" y="395" as="targetPoint" />
          </mxGeometry>
        </mxCell>
        <mxCell id="YWGqaz6Da9Mq3yNSdDmz-19" value="Buffer control" style="rounded=0;whiteSpace=wrap;html=1;flipV=1;horizontal=0;" vertex="1" parent="1">
          <mxGeometry x="240" y="270" width="30" height="190" as="geometry" />
        </mxCell>
        <mxCell id="YWGqaz6Da9Mq3yNSdDmz-20" value="switch" style="shape=trapezoid;perimeter=trapezoidPerimeter;whiteSpace=wrap;html=1;fixedSize=1;rotation=90;" vertex="1" parent="1">
          <mxGeometry x="310.38" y="270.62" width="83.75" height="22.5" as="geometry" />
        </mxCell>
        <mxCell id="YWGqaz6Da9Mq3yNSdDmz-21" value="switch" style="shape=trapezoid;perimeter=trapezoidPerimeter;whiteSpace=wrap;html=1;fixedSize=1;rotation=90;horizontal=1;" vertex="1" parent="1">
          <mxGeometry x="311.5" y="425.5" width="81.51" height="23" as="geometry" />
        </mxCell>
        <mxCell id="YWGqaz6Da9Mq3yNSdDmz-22" value="local buffer" style="rounded=0;whiteSpace=wrap;html=1;" vertex="1" parent="1">
          <mxGeometry x="460" y="210" width="230" height="20" as="geometry" />
        </mxCell>
        <mxCell id="YWGqaz6Da9Mq3yNSdDmz-23" value="PE" style="whiteSpace=wrap;html=1;aspect=fixed;" vertex="1" parent="1">
          <mxGeometry x="460" y="250" width="30" height="30" as="geometry" />
        </mxCell>
        <mxCell id="YWGqaz6Da9Mq3yNSdDmz-24" value="PE" style="whiteSpace=wrap;html=1;aspect=fixed;" vertex="1" parent="1">
          <mxGeometry x="510" y="250" width="30" height="30" as="geometry" />
        </mxCell>
        <mxCell id="YWGqaz6Da9Mq3yNSdDmz-25" value="PE" style="whiteSpace=wrap;html=1;aspect=fixed;" vertex="1" parent="1">
          <mxGeometry x="610" y="250" width="30" height="30" as="geometry" />
        </mxCell>
        <mxCell id="YWGqaz6Da9Mq3yNSdDmz-26" value="PE" style="whiteSpace=wrap;html=1;aspect=fixed;" vertex="1" parent="1">
          <mxGeometry x="660" y="250" width="30" height="30" as="geometry" />
        </mxCell>
        <mxCell id="YWGqaz6Da9Mq3yNSdDmz-27" value="PE" style="whiteSpace=wrap;html=1;aspect=fixed;" vertex="1" parent="1">
          <mxGeometry x="460" y="290" width="30" height="30" as="geometry" />
        </mxCell>
        <mxCell id="YWGqaz6Da9Mq3yNSdDmz-28" value="PE" style="whiteSpace=wrap;html=1;aspect=fixed;" vertex="1" parent="1">
          <mxGeometry x="510" y="290" width="30" height="30" as="geometry" />
        </mxCell>
        <mxCell id="YWGqaz6Da9Mq3yNSdDmz-29" value="PE" style="whiteSpace=wrap;html=1;aspect=fixed;" vertex="1" parent="1">
          <mxGeometry x="610" y="290" width="30" height="30" as="geometry" />
        </mxCell>
        <mxCell id="YWGqaz6Da9Mq3yNSdDmz-30" value="PE" style="whiteSpace=wrap;html=1;aspect=fixed;" vertex="1" parent="1">
          <mxGeometry x="660" y="290" width="30" height="30" as="geometry" />
        </mxCell>
        <mxCell id="YWGqaz6Da9Mq3yNSdDmz-31" value="PE" style="whiteSpace=wrap;html=1;aspect=fixed;" vertex="1" parent="1">
          <mxGeometry x="460" y="385" width="30" height="30" as="geometry" />
        </mxCell>
        <mxCell id="YWGqaz6Da9Mq3yNSdDmz-32" value="PE" style="whiteSpace=wrap;html=1;aspect=fixed;" vertex="1" parent="1">
          <mxGeometry x="510" y="385" width="30" height="30" as="geometry" />
        </mxCell>
        <mxCell id="YWGqaz6Da9Mq3yNSdDmz-33" value="PE" style="whiteSpace=wrap;html=1;aspect=fixed;" vertex="1" parent="1">
          <mxGeometry x="610" y="385" width="30" height="30" as="geometry" />
        </mxCell>
        <mxCell id="YWGqaz6Da9Mq3yNSdDmz-34" value="PE" style="whiteSpace=wrap;html=1;aspect=fixed;" vertex="1" parent="1">
          <mxGeometry x="660" y="385" width="30" height="30" as="geometry" />
        </mxCell>
        <mxCell id="YWGqaz6Da9Mq3yNSdDmz-35" value="PE" style="whiteSpace=wrap;html=1;aspect=fixed;" vertex="1" parent="1">
          <mxGeometry x="460" y="345" width="30" height="30" as="geometry" />
        </mxCell>
        <mxCell id="YWGqaz6Da9Mq3yNSdDmz-36" value="PE" style="whiteSpace=wrap;html=1;aspect=fixed;" vertex="1" parent="1">
          <mxGeometry x="510" y="345" width="30" height="30" as="geometry" />
        </mxCell>
        <mxCell id="YWGqaz6Da9Mq3yNSdDmz-37" value="PE" style="whiteSpace=wrap;html=1;aspect=fixed;" vertex="1" parent="1">
          <mxGeometry x="610" y="345" width="30" height="30" as="geometry" />
        </mxCell>
        <mxCell id="YWGqaz6Da9Mq3yNSdDmz-38" value="PE" style="whiteSpace=wrap;html=1;aspect=fixed;" vertex="1" parent="1">
          <mxGeometry x="660" y="345" width="30" height="30" as="geometry" />
        </mxCell>
        <mxCell id="YWGqaz6Da9Mq3yNSdDmz-39" value="Supper&lt;br style=&quot;font-size: 8px;&quot;&gt;PE" style="rounded=0;whiteSpace=wrap;html=1;fontSize=8;" vertex="1" parent="1">
          <mxGeometry x="460" y="430" width="30" height="40" as="geometry" />
        </mxCell>
        <mxCell id="YWGqaz6Da9Mq3yNSdDmz-40" value="Supper&lt;br style=&quot;font-size: 8px;&quot;&gt;PE" style="rounded=0;whiteSpace=wrap;html=1;fontSize=8;" vertex="1" parent="1">
          <mxGeometry x="510" y="430" width="30" height="40" as="geometry" />
        </mxCell>
        <mxCell id="YWGqaz6Da9Mq3yNSdDmz-41" value="Supper&lt;br style=&quot;font-size: 8px;&quot;&gt;PE" style="rounded=0;whiteSpace=wrap;html=1;fontSize=8;" vertex="1" parent="1">
          <mxGeometry x="610" y="430" width="30" height="40" as="geometry" />
        </mxCell>
        <mxCell id="YWGqaz6Da9Mq3yNSdDmz-42" value="Supper&lt;br style=&quot;font-size: 8px;&quot;&gt;PE" style="rounded=0;whiteSpace=wrap;html=1;fontSize=8;" vertex="1" parent="1">
          <mxGeometry x="660" y="430" width="30" height="40" as="geometry" />
        </mxCell>
        <mxCell id="YWGqaz6Da9Mq3yNSdDmz-43" value="Reconfigurable PE array" style="text;html=1;strokeColor=none;fillColor=none;align=center;verticalAlign=middle;whiteSpace=wrap;rounded=0;fontSize=15;fontStyle=1" vertex="1" parent="1">
          <mxGeometry x="460" y="490" width="230" height="30" as="geometry" />
        </mxCell>
        <mxCell id="YWGqaz6Da9Mq3yNSdDmz-44" value="&lt;font style=&quot;font-size: 11px;&quot;&gt;parameter buffer&lt;/font&gt;" style="rounded=0;whiteSpace=wrap;html=1;fontSize=15;" vertex="1" parent="1">
          <mxGeometry x="462.5" y="60" width="95" height="50" as="geometry" />
        </mxCell>
        <mxCell id="YWGqaz6Da9Mq3yNSdDmz-45" value="configuration&lt;br&gt;buffer" style="rounded=0;whiteSpace=wrap;html=1;fontSize=15;" vertex="1" parent="1">
          <mxGeometry x="462.5" y="110" width="95" height="50" as="geometry" />
        </mxCell>
        <mxCell id="YWGqaz6Da9Mq3yNSdDmz-46" value="&lt;b&gt;external memory&lt;/b&gt;" style="rounded=0;whiteSpace=wrap;html=1;fontSize=11;horizontal=0;" vertex="1" parent="1">
          <mxGeometry x="20" y="240" width="40" height="240" as="geometry" />
        </mxCell>
        <mxCell id="YWGqaz6Da9Mq3yNSdDmz-47" value="Memory System" style="text;html=1;strokeColor=none;fillColor=none;align=center;verticalAlign=middle;whiteSpace=wrap;rounded=0;fontSize=15;fontStyle=1" vertex="1" parent="1">
          <mxGeometry x="100" y="490" width="200" height="30" as="geometry" />
        </mxCell>
        <mxCell id="YWGqaz6Da9Mq3yNSdDmz-48" value="" style="endArrow=classicThin;startArrow=classicThin;html=1;rounded=0;fontSize=11;exitX=0;exitY=0.5;exitDx=0;exitDy=0;entryX=1.044;entryY=0.462;entryDx=0;entryDy=0;entryPerimeter=0;startFill=1;endFill=1;fillColor=#dae8fc;strokeColor=#6c8ebf;" edge="1" parent="1" target="YWGqaz6Da9Mq3yNSdDmz-23">
          <mxGeometry width="50" height="50" relative="1" as="geometry">
            <mxPoint x="510" y="263.8600000000001" as="sourcePoint" />
            <mxPoint x="487.57000000000005" y="266.14000000000004" as="targetPoint" />
          </mxGeometry>
        </mxCell>
        <mxCell id="YWGqaz6Da9Mq3yNSdDmz-49" value="" style="endArrow=classicThin;startArrow=classicThin;html=1;rounded=0;fontSize=11;exitX=0;exitY=0.5;exitDx=0;exitDy=0;entryX=1.044;entryY=0.462;entryDx=0;entryDy=0;entryPerimeter=0;startFill=1;endFill=1;fillColor=#dae8fc;strokeColor=#6c8ebf;" edge="1" parent="1">
          <mxGeometry width="50" height="50" relative="1" as="geometry">
            <mxPoint x="508.67999999999984" y="304.9200000000001" as="sourcePoint" />
            <mxPoint x="490" y="304.9200000000001" as="targetPoint" />
          </mxGeometry>
        </mxCell>
        <mxCell id="YWGqaz6Da9Mq3yNSdDmz-50" value="" style="endArrow=classicThin;startArrow=classicThin;html=1;rounded=0;fontSize=11;exitX=0;exitY=0.5;exitDx=0;exitDy=0;entryX=1.044;entryY=0.462;entryDx=0;entryDy=0;entryPerimeter=0;startFill=1;endFill=1;fillColor=#dae8fc;strokeColor=#6c8ebf;" edge="1" parent="1">
          <mxGeometry width="50" height="50" relative="1" as="geometry">
            <mxPoint x="510" y="359.9200000000001" as="sourcePoint" />
            <mxPoint x="491.32000000000016" y="359.9200000000001" as="targetPoint" />
          </mxGeometry>
        </mxCell>
        <mxCell id="YWGqaz6Da9Mq3yNSdDmz-51" value="" style="endArrow=classicThin;startArrow=classicThin;html=1;rounded=0;fontSize=11;exitX=0;exitY=0.5;exitDx=0;exitDy=0;entryX=1.044;entryY=0.462;entryDx=0;entryDy=0;entryPerimeter=0;startFill=1;endFill=1;fillColor=#dae8fc;strokeColor=#6c8ebf;" edge="1" parent="1">
          <mxGeometry width="50" height="50" relative="1" as="geometry">
            <mxPoint x="510" y="399.9200000000001" as="sourcePoint" />
            <mxPoint x="491.32000000000016" y="399.9200000000001" as="targetPoint" />
          </mxGeometry>
        </mxCell>
        <mxCell id="YWGqaz6Da9Mq3yNSdDmz-52" value="" style="endArrow=classicThin;startArrow=classicThin;html=1;rounded=0;fontSize=11;exitX=0;exitY=0.5;exitDx=0;exitDy=0;entryX=1.044;entryY=0.462;entryDx=0;entryDy=0;entryPerimeter=0;startFill=1;endFill=1;fillColor=#dae8fc;strokeColor=#6c8ebf;" edge="1" parent="1">
          <mxGeometry width="50" height="50" relative="1" as="geometry">
            <mxPoint x="508.67999999999984" y="450" as="sourcePoint" />
            <mxPoint x="490" y="450" as="targetPoint" />
          </mxGeometry>
        </mxCell>
        <mxCell id="YWGqaz6Da9Mq3yNSdDmz-53" value="" style="endArrow=classicThin;startArrow=classicThin;html=1;rounded=0;fontSize=11;exitX=0;exitY=0.5;exitDx=0;exitDy=0;entryX=1.044;entryY=0.462;entryDx=0;entryDy=0;entryPerimeter=0;startFill=1;endFill=1;fillColor=#dae8fc;strokeColor=#6c8ebf;" edge="1" parent="1">
          <mxGeometry width="50" height="50" relative="1" as="geometry">
            <mxPoint x="660" y="264.8800000000001" as="sourcePoint" />
            <mxPoint x="641.3199999999997" y="264.8800000000001" as="targetPoint" />
          </mxGeometry>
        </mxCell>
        <mxCell id="YWGqaz6Da9Mq3yNSdDmz-54" value="" style="endArrow=classicThin;startArrow=classicThin;html=1;rounded=0;fontSize=11;exitX=0;exitY=0.5;exitDx=0;exitDy=0;entryX=1.044;entryY=0.462;entryDx=0;entryDy=0;entryPerimeter=0;startFill=1;endFill=1;fillColor=#dae8fc;strokeColor=#6c8ebf;" edge="1" parent="1">
          <mxGeometry width="50" height="50" relative="1" as="geometry">
            <mxPoint x="660" y="304.8800000000001" as="sourcePoint" />
            <mxPoint x="641.3199999999997" y="304.8800000000001" as="targetPoint" />
          </mxGeometry>
        </mxCell>
        <mxCell id="YWGqaz6Da9Mq3yNSdDmz-55" value="" style="endArrow=classicThin;startArrow=classicThin;html=1;rounded=0;fontSize=11;exitX=0;exitY=0.5;exitDx=0;exitDy=0;entryX=1.044;entryY=0.462;entryDx=0;entryDy=0;entryPerimeter=0;startFill=1;endFill=1;fillColor=#dae8fc;strokeColor=#6c8ebf;" edge="1" parent="1">
          <mxGeometry width="50" height="50" relative="1" as="geometry">
            <mxPoint x="660" y="359.8800000000001" as="sourcePoint" />
            <mxPoint x="641.3199999999997" y="359.8800000000001" as="targetPoint" />
          </mxGeometry>
        </mxCell>
        <mxCell id="YWGqaz6Da9Mq3yNSdDmz-56" value="" style="endArrow=classicThin;startArrow=classicThin;html=1;rounded=0;fontSize=11;exitX=0;exitY=0.5;exitDx=0;exitDy=0;entryX=1.044;entryY=0.462;entryDx=0;entryDy=0;entryPerimeter=0;startFill=1;endFill=1;fillColor=#dae8fc;strokeColor=#6c8ebf;" edge="1" parent="1">
          <mxGeometry width="50" height="50" relative="1" as="geometry">
            <mxPoint x="658.6800000000003" y="399.8800000000001" as="sourcePoint" />
            <mxPoint x="640" y="399.8800000000001" as="targetPoint" />
          </mxGeometry>
        </mxCell>
        <mxCell id="YWGqaz6Da9Mq3yNSdDmz-57" value="" style="endArrow=classicThin;startArrow=classicThin;html=1;rounded=0;fontSize=11;exitX=0;exitY=0.5;exitDx=0;exitDy=0;entryX=1.044;entryY=0.462;entryDx=0;entryDy=0;entryPerimeter=0;startFill=1;endFill=1;fillColor=#dae8fc;strokeColor=#6c8ebf;" edge="1" parent="1">
          <mxGeometry width="50" height="50" relative="1" as="geometry">
            <mxPoint x="658.6799999999998" y="450" as="sourcePoint" />
            <mxPoint x="640" y="450" as="targetPoint" />
          </mxGeometry>
        </mxCell>
        <mxCell id="YWGqaz6Da9Mq3yNSdDmz-58" value="" style="endArrow=classic;html=1;rounded=0;fontSize=11;entryX=0.5;entryY=0;entryDx=0;entryDy=0;exitX=0.065;exitY=1.049;exitDx=0;exitDy=0;exitPerimeter=0;" edge="1" parent="1" source="YWGqaz6Da9Mq3yNSdDmz-22" target="YWGqaz6Da9Mq3yNSdDmz-23">
          <mxGeometry width="50" height="50" relative="1" as="geometry">
            <mxPoint x="470" y="280" as="sourcePoint" />
            <mxPoint x="520" y="230" as="targetPoint" />
          </mxGeometry>
        </mxCell>
        <mxCell id="YWGqaz6Da9Mq3yNSdDmz-59" value="" style="endArrow=classic;html=1;rounded=0;fontSize=11;entryX=0.5;entryY=0;entryDx=0;entryDy=0;exitX=0.065;exitY=1.049;exitDx=0;exitDy=0;exitPerimeter=0;" edge="1" parent="1">
          <mxGeometry width="50" height="50" relative="1" as="geometry">
            <mxPoint x="524.8299999999999" y="230.98000000000002" as="sourcePoint" />
            <mxPoint x="524.8800000000001" y="250" as="targetPoint" />
          </mxGeometry>
        </mxCell>
        <mxCell id="YWGqaz6Da9Mq3yNSdDmz-60" value="" style="endArrow=classic;html=1;rounded=0;fontSize=11;entryX=0.5;entryY=0;entryDx=0;entryDy=0;exitX=0.065;exitY=1.049;exitDx=0;exitDy=0;exitPerimeter=0;" edge="1" parent="1">
          <mxGeometry width="50" height="50" relative="1" as="geometry">
            <mxPoint x="624.8299999999999" y="230.98000000000002" as="sourcePoint" />
            <mxPoint x="624.8800000000001" y="250" as="targetPoint" />
          </mxGeometry>
        </mxCell>
        <mxCell id="YWGqaz6Da9Mq3yNSdDmz-61" value="" style="endArrow=classic;html=1;rounded=0;fontSize=11;entryX=0.5;entryY=0;entryDx=0;entryDy=0;exitX=0.065;exitY=1.049;exitDx=0;exitDy=0;exitPerimeter=0;" edge="1" parent="1">
          <mxGeometry width="50" height="50" relative="1" as="geometry">
            <mxPoint x="674.8299999999999" y="230.98000000000002" as="sourcePoint" />
            <mxPoint x="674.8800000000001" y="250" as="targetPoint" />
          </mxGeometry>
        </mxCell>
      </root>
    </mxGraphModel>
  </diagram>
</mxfile>
